<svg width="1024" height="1024" viewBox="0 0 1024 1024" xmlns="http://www.w3.org/2000/svg">
  <defs>
    <linearGradient id="bg" x1="0%" y1="0%" x2="100%" y2="100%">
      <stop offset="0%" stop-color="#7c5cf0" />
      <stop offset="100%" stop-color="#9a3fd6" />
    </linearGradient>
  </defs>

  <rect x="32" y="32" width="960" height="960" rx="210" fill="url(#bg)" />

  <!-- K monogram, in the empty space above the keyboard -->
  <text
    x="512"
    y="266"
    text-anchor="middle"
    dominant-baseline="central"
    font-family="Arial, Helvetica, sans-serif"
    font-weight="800"
    font-size="260"
    fill="#ffffff"
  >K</text>

  <!-- keyboard body -->
  <rect x="182" y="372" width="660" height="360" rx="48" fill="#ffffff" fill-opacity="0.16" />
  <rect x="182" y="372" width="660" height="360" rx="48" fill="none" stroke="#ffffff" stroke-width="22" />

  <!-- key rows -->
  <g fill="#ffffff">
    <rect x="232" y="430" width="64" height="50" rx="12" />
    <rect x="316" y="430" width="64" height="50" rx="12" />
    <rect x="400" y="430" width="64" height="50" rx="12" />
    <rect x="484" y="430" width="64" height="50" rx="12" />
    <rect x="568" y="430" width="64" height="50" rx="12" />
    <rect x="652" y="430" width="64" height="50" rx="12" />
    <rect x="736" y="430" width="56" height="50" rx="12" />

    <rect x="232" y="500" width="64" height="50" rx="12" />
    <rect x="316" y="500" width="64" height="50" rx="12" />
    <rect x="400" y="500" width="64" height="50" rx="12" />
    <rect x="484" y="500" width="64" height="50" rx="12" />
    <rect x="568" y="500" width="64" height="50" rx="12" />
    <rect x="652" y="500" width="64" height="50" rx="12" />
    <rect x="736" y="500" width="56" height="50" rx="12" />

    <rect x="232" y="570" width="404" height="50" rx="16" />
    <rect x="652" y="570" width="140" height="50" rx="12" />
  </g>
</svg>
